<svg width="96" height="25" viewBox="0 0 96 25" fill="none" xmlns="http://www.w3.org/2000/svg">
<path fill-rule="evenodd" clip-rule="evenodd" d="M48.6418 17.3116C49.4006 17.6086 50.2198 17.7571 51.0996 17.7571C51.9793 17.7571 52.7876 17.6141 53.5243 17.3281C54.2721 17.0311 54.9209 16.6186 55.4708 16.0906C56.0316 15.5516 56.4605 14.9246 56.7574 14.2096C57.0653 13.4946 57.2192 12.7081 57.2192 11.8501C57.2192 10.9921 57.0653 10.2056 56.7574 9.49062C56.4605 8.77562 56.0316 8.15412 55.4708 7.62611C54.9209 7.08712 54.2721 6.67461 53.5243 6.38861C52.7876 6.09162 51.9793 5.94312 51.0996 5.94312C50.2088 5.94312 49.3896 6.09162 48.6418 6.38861C47.894 6.68561 47.2452 7.10361 46.6954 7.64262C46.1455 8.17061 45.7167 8.79211 45.4088 9.50711C45.1008 10.2221 44.9469 11.0031 44.9469 11.8501C44.9469 12.6971 45.1008 13.4781 45.4088 14.1931C45.7167 14.9081 46.1455 15.5351 46.6954 16.0741C47.2452 16.6021 47.894 17.0146 48.6418 17.3116ZM52.8645 15.9586C52.3257 16.1786 51.7374 16.2886 51.0996 16.2886C50.4508 16.2886 49.8514 16.1786 49.3016 15.9586C48.7628 15.7386 48.2899 15.4306 47.883 15.0346C47.4761 14.6276 47.1572 14.1546 46.9263 13.6156C46.7064 13.0766 46.5964 12.4881 46.5964 11.8501C46.5964 11.2121 46.7064 10.6236 46.9263 10.0846C47.1572 9.54562 47.4761 9.07811 47.883 8.68211C48.2899 8.27511 48.7628 7.96161 49.3016 7.74161C49.8514 7.52161 50.4508 7.41162 51.0996 7.41162C51.7374 7.41162 52.3257 7.52161 52.8645 7.74161C53.4144 7.96161 53.8872 8.27511 54.2831 8.68211C54.69 9.07811 55.0034 9.54562 55.2233 10.0846C55.4543 10.6236 55.5697 11.2121 55.5697 11.8501C55.5697 12.4881 55.4543 13.0766 55.2233 13.6156C55.0034 14.1546 54.69 14.6276 54.2831 15.0346C53.8872 15.4306 53.4144 15.7386 52.8645 15.9586Z" fill="#00304A"/>
<path fill-rule="evenodd" clip-rule="evenodd" d="M32.1704 6.07511V17.6251H33.8199V14.1106H36.6736C36.9273 14.1106 37.1718 14.1006 37.4068 14.0805L39.8901 17.6251H41.6881L38.9489 13.7587C39.0567 13.7197 39.1615 13.6775 39.2633 13.6321C39.9781 13.3131 40.5279 12.8566 40.9128 12.2626C41.2977 11.6576 41.4901 10.9371 41.4901 10.1011C41.4901 9.26512 41.2977 8.54462 40.9128 7.93962C40.5279 7.33462 39.9781 6.87262 39.2633 6.55362C38.5485 6.23461 37.6853 6.07511 36.6736 6.07511H32.1704ZM33.8199 12.7081H36.6241C37.6798 12.7081 38.477 12.4826 39.0159 12.0316C39.5657 11.5696 39.8406 10.9261 39.8406 10.1011C39.8406 9.27612 39.5657 8.63811 39.0159 8.18712C38.477 7.73611 37.6798 7.51061 36.6241 7.51061H33.8199V12.7081Z" fill="#00304A"/>
<path fill-rule="evenodd" clip-rule="evenodd" d="M66.6848 17.7571C65.8051 17.7571 64.9859 17.6086 64.2271 17.3116C63.4793 17.0146 62.8305 16.6021 62.2807 16.0741C61.7308 15.5351 61.3019 14.9081 60.994 14.1931C60.6861 13.4781 60.5322 12.6971 60.5322 11.8501C60.5322 11.0031 60.6861 10.2221 60.994 9.50711C61.3019 8.79211 61.7308 8.17061 62.2807 7.64262C62.8305 7.10361 63.4793 6.68561 64.2271 6.38861C64.9749 6.09162 65.7941 5.94312 66.6848 5.94312C67.5646 5.94312 68.3728 6.09162 69.1096 6.38861C69.8574 6.67461 70.5062 7.08712 71.056 7.62611C71.6169 8.15412 72.0457 8.77562 72.3427 9.49062C72.6506 10.2056 72.8045 10.9921 72.8045 11.8501C72.8045 12.7081 72.6506 13.4946 72.3427 14.2096C72.0457 14.9246 71.6169 15.5516 71.056 16.0906C70.5062 16.6186 69.8574 17.0311 69.1096 17.3281C68.3728 17.6141 67.5646 17.7571 66.6848 17.7571ZM66.6848 16.2886C67.3227 16.2886 67.911 16.1786 68.4498 15.9586C68.9997 15.7386 69.4725 15.4306 69.8684 15.0346C70.2753 14.6276 70.5887 14.1546 70.8086 13.6156C71.0395 13.0766 71.155 12.4881 71.155 11.8501C71.155 11.2121 71.0395 10.6236 70.8086 10.0846C70.5887 9.54562 70.2753 9.07811 69.8684 8.68211C69.4725 8.27511 68.9997 7.96161 68.4498 7.74161C67.911 7.52161 67.3227 7.41162 66.6848 7.41162C66.036 7.41162 65.4367 7.52161 64.8869 7.74161C64.348 7.96161 63.8752 8.27511 63.4683 8.68211C63.0614 9.07811 62.7425 9.54562 62.5116 10.0846C62.2916 10.6236 62.1817 11.2121 62.1817 11.8501C62.1817 12.4881 62.2916 13.0766 62.5116 13.6156C62.7425 14.1546 63.0614 14.6276 63.4683 15.0346C63.8752 15.4306 64.348 15.7386 64.8869 15.9586C65.4367 16.1786 66.036 16.2886 66.6848 16.2886Z" fill="#00304A"/>
<path d="M79.1894 7.51061V17.6251H80.8224V7.51061H84.7812V6.07511H75.2306V7.51061H79.1894Z" fill="#00304A"/>
<path d="M91.5298 17.7571C90.6501 17.7571 89.8088 17.6251 89.0061 17.3611C88.2033 17.0861 87.571 16.7341 87.1091 16.3051L87.7194 15.0181C88.1593 15.4031 88.7201 15.7221 89.4019 15.9751C90.0837 16.2281 90.793 16.3546 91.5298 16.3546C92.2006 16.3546 92.7449 16.2776 93.1628 16.1236C93.5807 15.9696 93.8886 15.7606 94.0865 15.4966C94.2845 15.2216 94.3835 14.9136 94.3835 14.5726C94.3835 14.1766 94.2515 13.8576 93.9876 13.6156C93.7347 13.3736 93.3993 13.1811 92.9814 13.0381C92.5745 12.8841 92.1236 12.7521 91.6288 12.6421C91.1339 12.5321 90.6336 12.4056 90.1277 12.2626C89.6329 12.1086 89.1765 11.9161 88.7586 11.6851C88.3518 11.4541 88.0219 11.1461 87.7689 10.7611C87.516 10.3651 87.3895 9.85911 87.3895 9.24312C87.3895 8.64912 87.5435 8.10462 87.8514 7.60961C88.1703 7.10361 88.6542 6.70211 89.303 6.40512C89.9628 6.09712 90.7985 5.94312 91.8102 5.94312C92.481 5.94312 93.1463 6.03112 93.8061 6.20711C94.4659 6.38311 95.0378 6.63611 95.5216 6.96611L94.9773 8.28612C94.4824 7.95612 93.9601 7.71962 93.4102 7.57661C92.8604 7.42261 92.3271 7.34562 91.8102 7.34562C91.1614 7.34562 90.6281 7.42812 90.2102 7.59311C89.7923 7.75811 89.4844 7.97812 89.2865 8.25312C89.0995 8.52812 89.0061 8.83611 89.0061 9.17712C89.0061 9.58411 89.1325 9.90861 89.3854 10.1506C89.6494 10.3926 89.9848 10.5851 90.3916 10.7281C90.8095 10.8711 91.2659 11.0031 91.7607 11.1241C92.2556 11.2341 92.7504 11.3606 93.2453 11.5036C93.7511 11.6466 94.2075 11.8336 94.6144 12.0646C95.0323 12.2956 95.3677 12.6036 95.6206 12.9886C95.8735 13.3736 96 13.8686 96 14.4736C96 15.0566 95.8405 15.6011 95.5216 16.1071C95.2027 16.6021 94.7079 17.0036 94.0371 17.3116C93.3773 17.6086 92.5415 17.7571 91.5298 17.7571Z" fill="#00304A"/>
<path fill-rule="evenodd" clip-rule="evenodd" d="M23.9928 17.2015L19.0499 12.2572L23.9928 7.31287L22.0048 5.32417L17.0619 10.2685L13.9847 7.19045L18.9277 2.24602L16.9397 0.257396L11.9967 5.20182L7.05368 0.257324L5.06565 2.24595L10.0087 7.19044L6.93124 10.2688L1.98803 5.32408L0 7.31271L4.94321 12.2574L0.000144719 17.2019L1.98818 19.1906L6.93124 14.246L10.0084 17.3241L5.06533 22.2687L7.05328 24.2572L11.9965 19.3128L16.9395 24.2572L18.9275 22.2686L13.9845 17.3241L17.0619 14.2458L22.0051 19.1905L23.9928 17.2022V17.2015ZM8.91928 12.2574L11.9965 15.3355L15.0739 12.2572L11.9967 9.17907L8.91928 12.2574Z" fill="#00304A"/>
</svg>
